<svg id="图层_1" data-name="图层 1" xmlns="http://www.w3.org/2000/svg" viewBox="0 0 376.47 75.29"><defs><style>.cls-1{opacity:0.95;}.cls-2{fill:#333;fill-opacity:0;}.cls-3{fill:#f15a3f;}.cls-3,.cls-4,.cls-5,.cls-6{opacity:0.8;isolation:isolate;}.cls-4{fill:#00bfd7;}.cls-5{fill:#ffcb02;}.cls-6{fill:#bfd72f;}</style></defs><title>minisns</title><g class="cls-1"><rect class="cls-2" width="75.29" height="75.29"/><path class="cls-3" d="M144.54,61.64h-46l16.73-16.73h12.55Z" transform="translate(-69.25 -44.91)"/><path class="cls-3" d="M115.26,61.64h-46L86,44.91H98.53Zm-16.73,0h16.73V120.2H98.53Z" transform="translate(-69.25 -44.91)"/><path class="cls-3" d="M69.25,61.64V120.2H86V44.91Zm58.56-16.73V120.2h16.73V61.64Z" transform="translate(-69.25 -44.91)"/><rect class="cls-2" x="75.29" width="33.46" height="75.29"/><path class="cls-4" d="M152.91,44.91h16.73V120.2H152.91Z" transform="translate(-69.25 -44.91)"/><path class="cls-4" d="M144.54,44.91H178V61.64H144.54Zm0,58.56H178V120.2H144.54Z" transform="translate(-69.25 -44.91)"/><rect class="cls-2" x="108.76" width="62.75" height="75.29"/><path class="cls-5" d="M217.74,61.64H178l16.73-16.73H201Z" transform="translate(-69.25 -44.91)"/><path class="cls-5" d="M201,44.91v58.56l16.73,16.73V61.64ZM178,61.64V120.2h16.73V44.91Zm46,58.56V44.91h16.73v58.56Z" transform="translate(-69.25 -44.91)"/><path class="cls-5" d="M201,103.47h39.74L224,120.2h-6.28Z" transform="translate(-69.25 -44.91)"/><rect class="cls-2" x="171.5" width="33.46" height="75.29"/><path class="cls-4" d="M249.12,44.91h16.73V120.2H249.12Z" transform="translate(-69.25 -44.91)"/><path class="cls-4" d="M240.75,44.91h33.46V61.64H240.75Zm0,58.56h33.46V120.2H240.75Z" transform="translate(-69.25 -44.91)"/><rect class="cls-2" x="204.97" width="54.38" height="75.29"/><path class="cls-6" d="M291,44.91v46L274.21,74.19V61.64Zm20.91,29.28v46l16.73-16.73V90.92Z" transform="translate(-69.25 -44.91)"/><path class="cls-6" d="M328.59,90.92H291L274.21,74.19h37.65ZM311.86,120.2H278.4V103.47h50.19ZM274.21,61.64h50.2V44.91H291Z" transform="translate(-69.25 -44.91)"/><rect class="cls-2" x="259.35" width="62.75" height="75.29"/><path class="cls-5" d="M368.33,61.64H328.59l16.74-16.73h6.27Z" transform="translate(-69.25 -44.91)"/><path class="cls-5" d="M351.6,44.91v58.56l16.73,16.73V61.64Zm-23,16.73V120.2h16.74V44.91Zm46,58.56V44.91h16.73v58.56Z" transform="translate(-69.25 -44.91)"/><path class="cls-5" d="M351.6,103.47h39.74L374.61,120.2h-6.28Z" transform="translate(-69.25 -44.91)"/><rect class="cls-2" x="322.09" width="54.38" height="75.29"/><path class="cls-6" d="M408.07,44.91v46L391.34,74.19V61.64ZM429,74.19v46l16.73-16.73V90.92Z" transform="translate(-69.25 -44.91)"/><path class="cls-6" d="M445.72,90.92H408.07L391.34,74.19H429ZM429,120.2H395.52V103.47h50.2ZM391.34,61.64h50.2V44.91H408.07Z" transform="translate(-69.25 -44.91)"/></g></svg>