<?xml version="1.0" standalone="no"?><!DOCTYPE svg PUBLIC "-//W3C//DTD SVG 1.1//EN" "http://www.w3.org/Graphics/SVG/1.1/DTD/svg11.dtd"><svg t="1680346227939" class="icon" viewBox="0 0 1024 1024" version="1.1" xmlns="http://www.w3.org/2000/svg" p-id="13431" xmlns:xlink="http://www.w3.org/1999/xlink" width="48" height="48"><path d="M785.1 0 238.9 0c-37.7 0-68.3 30.6-68.3 68.3L170.6 955.7c0 37.7 30.6 68.3 68.3 68.3l546.1 0c37.7 0 68.3-30.6 68.3-68.3l0-887.5C853.3 30.5 822.8 0 785.1 0zM416 64l190.5 0c17.7 0 32 14.3 32 32s-14.3 32-32 32L416 128c-17.7 0-32-14.3-32-32S398.3 64 416 64zM512 992c-26.5 0-48-21.5-48-48 0-26.5 21.5-48 48-48s48 21.5 48 48C560 970.5 538.5 992 512 992zM789.3 887 234.7 887l0-727 554.7 0L789.4 887z" p-id="13432" data-spm-anchor-id="a313x.7781069.0.i10" class="selected" fill="#ffffff"></path></svg>