<?xml version="1.0" standalone="no"?><!DOCTYPE svg PUBLIC "-//W3C//DTD SVG 1.1//EN" "http://www.w3.org/Graphics/SVG/1.1/DTD/svg11.dtd"><svg t="1625043587445" class="icon" viewBox="0 0 1024 1024" version="1.1" xmlns="http://www.w3.org/2000/svg" p-id="2657" width="32" height="32" xmlns:xlink="http://www.w3.org/1999/xlink"><defs><style type="text/css"></style></defs><path d="M1005.056 760.32c-3.072-64-31.232-125.44-78.848-173.056l-46.592-46.592-0.512-0.512-31.744-31.744c-25.088-24.576-65.536-24.576-90.112 0-25.088 25.088-25.088 65.536 0 90.624l21.504 21.504 57.344 57.344c25.088 25.088 39.936 56.832 41.472 88.576 1.024 22.016-3.584 53.248-30.72 80.384-25.6 25.6-54.784 30.72-74.752 30.72-33.792 0-68.096-15.36-94.208-41.472l-197.632-197.632c-49.664-49.664-54.272-125.44-10.752-168.96 25.088-25.088 25.088-65.536 0-90.624-25.088-25.088-65.536-25.088-90.624 0-45.056 45.056-67.072 104.448-67.072 165.376 0 65.536 26.112 133.12 77.824 184.832l197.632 197.632c50.176 50.176 117.248 78.848 184.832 78.848 62.464 0 121.344-24.064 165.376-68.096 46.592-47.616 70.656-110.592 67.584-177.152z" fill="#ffffff" p-id="2658"></path><path d="M268.8 427.008c-0.512-0.512-0.512-0.512 0 0L215.04 373.76l-27.136-27.136c-25.088-25.088-39.936-56.832-41.472-88.576-1.024-22.016 3.584-53.248 30.72-80.384 25.6-25.6 54.784-30.72 74.752-30.72 33.792 0 68.096 14.848 94.208 41.472l197.632 197.632c49.664 49.664 54.272 125.44 10.752 168.96-25.088 25.088-25.088 65.536 0 90.624 25.088 25.088 65.536 25.088 90.624 0 45.056-45.056 67.072-104.448 67.072-165.376 0-66.048-26.112-133.12-77.824-184.832L437.248 97.792C387.072 47.616 320 18.944 252.416 18.944 189.952 18.944 131.072 43.008 87.04 87.04 39.936 134.144 15.872 197.12 18.944 263.68 22.016 327.68 50.176 389.12 97.792 436.736l26.624 26.624 0.512 0.512L177.664 517.12c25.088 24.576 65.536 24.576 90.112 0 25.088-25.088 25.6-65.024 1.024-90.112z" fill="#ffffff" p-id="2659"></path></svg>