<?xml version="1.0" standalone="no"?><!DOCTYPE svg PUBLIC "-//W3C//DTD SVG 1.1//EN" "http://www.w3.org/Graphics/SVG/1.1/DTD/svg11.dtd"><svg t="1625022417018" class="icon" viewBox="0 0 1024 1024" version="1.1" xmlns="http://www.w3.org/2000/svg" p-id="1259" width="32" height="32" xmlns:xlink="http://www.w3.org/1999/xlink"><defs><style type="text/css"></style></defs><path d="M558.08 573.44h276.48v102.4h-276.48z" fill="#ffffff" p-id="1260"></path><path d="M537.6 128c143.34464 24.0384 210.048 98.65216 200.03328 225.87392H936.96l-62.36672 354.80064c-18.944 107.75552-112.27136 186.31168-221.34784 186.31168H87.04L182.15936 353.87392H355.7888L537.6 128z m42.77248 128.24576l-1.03936-0.4608-169.61024 210.72896-133.00224-0.00512-55.51616 315.83744h432.04096c53.70368 0 99.85024-38.3232 110.06464-91.32032l0.34304-1.85344 39.13728-222.66368h-207.49824c18.2016-57.77408 28.22144-98.26304 30.04928-121.47712 2.7392-34.816-2.92864-55.02464-14.45376-68.00896-6.68672-7.53664-16.72192-14.58176-30.5152-20.77696z" fill="#ffffff" p-id="1261"></path><path d="M898.36032 573.44l-18.00192 102.4H766.0032l17.99168-102.4h114.36544z" fill="#ffffff" p-id="1262"></path></svg>