<?xml version="1.0" standalone="no"?><!DOCTYPE svg PUBLIC "-//W3C//DTD SVG 1.1//EN" "http://www.w3.org/Graphics/SVG/1.1/DTD/svg11.dtd"><svg t="1625211651699" class="icon" viewBox="0 0 1024 1024" version="1.1" xmlns="http://www.w3.org/2000/svg" p-id="1054" width="48" height="48" xmlns:xlink="http://www.w3.org/1999/xlink"><defs><style type="text/css"></style></defs><path d="M277.333333 85.333333h469.333334a42.666667 42.666667 0 0 1 34.133333 17.066667L896 256v640a42.666667 42.666667 0 0 1-42.666667 42.666667H170.666667a42.666667 42.666667 0 0 1-42.666667-42.666667V256l115.2-153.6a42.666667 42.666667 0 0 1 34.133333-17.066667zM810.666667 341.333333H213.333333v512h597.333334V341.333333z m-21.333334-85.333333L725.333333 170.666667H298.666667L234.666667 256h554.666666zM384 426.666667v85.333333a128 128 0 0 0 256 0v-85.333333h85.333333v85.333333a213.333333 213.333333 0 0 1-426.666666 0v-85.333333h85.333333z" p-id="1055" fill="#333333"></path></svg>