<?xml version="1.0" standalone="no"?><!DOCTYPE svg PUBLIC "-//W3C//DTD SVG 1.1//EN" "http://www.w3.org/Graphics/SVG/1.1/DTD/svg11.dtd"><svg t="1622883060755" class="icon" viewBox="0 0 1024 1024" version="1.1" xmlns="http://www.w3.org/2000/svg" p-id="6505" width="48" height="48" xmlns:xlink="http://www.w3.org/1999/xlink"><defs><style type="text/css"></style></defs><path d="M513.3 957.7c-246.5 0-447-200.6-447-447.1s200.5-447 447-447 447 200.5 447 447-200.5 447.1-447 447.1z m0-804.6c-197.2 0-357.6 160.4-357.6 357.6 0 197.2 160.4 357.6 357.6 357.6s357.6-160.4 357.6-357.6c0-197.2-160.4-357.6-357.6-357.6z" fill="#ffffff" p-id="6506"></path><path d="M513.3 554.1c-24.7 0-44.7-20-44.7-44.7V398.1c0-81.1 66-147.1 147.1-147.1h8.9c81.1 0 147.1 66 147.1 147.1v8.9c0 69.6-49.4 130.2-117.5 144.2-24.3 5-47.8-10.7-52.8-34.8-4.9-24.2 10.7-47.8 34.8-52.8 26.7-5.5 46-29.2 46-56.6v-8.9c0-31.8-25.9-57.7-57.7-57.7h-8.9c-31.8 0-57.7 25.9-57.7 57.7v111.3c0.1 24.7-19.9 44.7-44.6 44.7z" fill="#ffffff" p-id="6507"></path><path d="M410.9 767.8H402c-81.1 0-147.1-66-147.1-147.1v-8.8c0-68.9 46.9-127.9 114-143.4 24-5.6 48.1 9.5 53.6 33.5s-9.5 48-33.5 53.6c-26.3 6.1-44.7 29.2-44.7 56.3v8.8c0 31.8 25.9 57.7 57.7 57.7h8.9c31.8 0 57.7-25.9 57.7-57.7V509.4c0-24.7 20-44.7 44.7-44.7 24.7 0 44.7 20 44.7 44.7v111.3c0 81.1-66 147.1-147.1 147.1z" fill="#ffffff" p-id="6508"></path></svg>